<svg id="Capa_1" enable-background="new 0 0 512 512" height="512" viewBox="0 0 512 512" width="512" xmlns="http://www.w3.org/2000/svg"><g><path d="m177.749 168.962-25.165 50.33c-5.972 11.941 5.521 25.147 18.159 20.938l85.257-28.418 85.257 28.419c12.681 4.225 24.112-9.037 18.159-20.938l-25.165-50.33 52.355-52.355c10.72-10.719.468-28.839-14.244-25.159l-101.362 25.34v-10.789c0-24.813 20.187-45 45-45 8.284 0 15-6.716 15-15s-6.716-15-15-15c-41.355 0-75 33.645-75 75v10.789l-101.362-25.341c-14.707-3.676-24.97 14.434-14.244 25.159z"/><path d="m407.64 138-36.89 36.89 15.5 30.99c17.798 35.597-16.283 75.57-54.48 62.81l-75.77-25.26-75.77 25.26c-38.015 12.647-72.338-27.08-54.48-62.82l15.5-30.98-36.89-36.89c-61.64 28.84-104.36 91.24-104.36 163 0 99.25 81.2 180 181 180 26.1 0 51.3-5.54 75-16.48 23.7 10.94 48.9 16.48 75 16.48 99.8 0 181-80.75 181-180 0-71.8-42.74-134.17-104.36-163z"/></g></svg>